<svg xmlns="http://www.w3.org/2000/svg" viewBox="0 0 126.53 100.98"><defs><style>.cls-1{fill:#27bfd8;}</style></defs><title>flota_icon_blue3</title><g id="Layer_2" data-name="Layer 2"><g id="Layer_1-2" data-name="Layer 1"><path class="cls-1" d="M62.77,27.07l-.12.11-.12-.11s-2.26,1.93-5.2,5c-5.71,6-14,16.42-13.49,25.8.71,12.76,6.49,35.34,6.49,35.34H74.81s5.78-22.58,6.48-35.34c.54-9.68-8.22-20.45-13.88-26.36C64.75,28.77,62.77,27.07,62.77,27.07ZM50.2,57.55c-.25-4.6,3-10.49,7.13-15.75a73.11,73.11,0,0,1,5.18-6c1.64,1.71,3.32,3.63,4.9,5.65,4.16,5.33,7.54,11.36,7.28,16.06-.47,8.54-3.44,22.13-5.13,29.31H55.33C53.65,79.68,50.68,66.1,50.2,57.55Z"/><path class="cls-1" d="M63,15.47A37.54,37.54,0,0,0,32.83,30.76,1.94,1.94,0,0,0,36,33.05a33.51,33.51,0,0,1,54.53.65,1.94,1.94,0,1,0,3.17-2.22A37.43,37.43,0,0,0,63,15.47Z"/><path class="cls-1" d="M42.8,10.48a34.13,34.13,0,0,1,40.92.41,1.93,1.93,0,0,0,2.35-3.07,38,38,0,0,0-45.56-.46,1.93,1.93,0,0,0-.42,2.7A2,2,0,0,0,42.8,10.48Z"/><path class="cls-1" d="M16.39,43.77l-.11.09-.1-.09s-1.95,1.67-4.5,4.35C6.74,53.31-.43,62.31,0,70.42.63,81.45,5.63,101,5.63,101H26.79s5-19.53,5.61-30.56c.46-8.36-7.11-17.68-12-22.78C18.09,45.24,16.39,43.77,16.39,43.77ZM5.52,70.12c-.22-4,2.62-9.07,6.16-13.62a63.9,63.9,0,0,1,4.48-5.15,64.49,64.49,0,0,1,4.23,4.88c3.6,4.61,6.53,9.83,6.3,13.89-.41,7.38-3,19.13-4.43,25.34H10C8.5,89.26,5.93,77.51,5.52,70.12Z"/><path class="cls-1" d="M114.5,47.64c-2.3-2.4-4-3.87-4-3.87l-.1.09-.1-.09s-2,1.67-4.5,4.35c-4.94,5.19-12.11,14.19-11.66,22.3.61,11,5.61,30.56,5.61,30.56H120.9s5-19.53,5.61-30.56C127,62.06,119.39,52.74,114.5,47.64ZM99.63,70.12c-.22-4,2.62-9.07,6.16-13.62a62,62,0,0,1,4.48-5.15,64.49,64.49,0,0,1,4.23,4.88c3.6,4.61,6.53,9.83,6.3,13.89-.41,7.38-3,19.13-4.44,25.34h-12.3C102.61,89.26,100,77.51,99.63,70.12Z"/></g></g></svg>